<?xml version="1.0" encoding="UTF-8"?><svg id="a" xmlns="http://www.w3.org/2000/svg" viewBox="0 0 263.01 233.98"><defs><style>.b{fill:#33373e;}.c{fill:none;stroke:#33373e;stroke-width:11.24px;}</style></defs><path class="b" d="M131.5,140.25c12.97,0,23.49-10.51,23.49-23.49s-10.51-23.49-23.49-23.49-23.49,10.51-23.49,23.49,10.51,23.49,23.49,23.49Z"/><path class="c" d="M131.51,69.02c31.53,0,60.82,4.52,82.91,12.13,26.61,9.16,42.97,23.05,42.97,35.62s-17.34,27.86-45.92,37.32c-21.61,7.16-50.04,10.89-79.97,10.89s-59.75-3.51-81.6-10.97c-27.64-9.45-44.29-24.39-44.29-37.25s15.62-26.25,41.86-35.4c22.17-7.73,52.18-12.35,84.02-12.35h0Z"/><path class="c" d="M89.94,93.03c15.75-27.32,34.31-50.43,51.93-65.76C163.1,8.79,183.3,1.56,194.19,7.84c11.35,6.55,15.47,28.94,9.39,58.42-4.59,22.29-15.56,48.79-30.51,74.71-15.33,26.59-32.89,50.01-50.27,65.2-21.99,19.23-43.26,26.18-54.39,19.76-10.8-6.23-14.94-26.65-9.75-53.95,4.38-23.07,15.37-51.38,31.27-78.96h0Z"/><path class="c" d="M89.97,141.04c-15.8-27.29-26.55-54.91-31.04-77.83-5.4-27.62-1.58-48.74,9.3-55.04,11.34-6.57,32.8,1.05,55.31,21.04,17.02,15.11,34.5,37.84,49.49,63.75,15.38,26.56,26.9,53.47,31.38,76.11,5.67,28.66,1.08,50.55-10.04,56.99-10.79,6.25-30.55-.37-51.61-18.49-17.79-15.31-36.83-38.97-52.79-66.53h0Z"/></svg>